<svg xmlns="http://www.w3.org/2000/svg" class="design-iconfont" viewBox="0 0 20 20"><g fill="none" fill-rule="evenodd"><path stroke="#737780" stroke-linecap="round" stroke-width="1.26" d="M11.435 11.254c-.08-.029-.596-.377-.268-1.342.79-.596 1.5-2.103 1.5-3.997 0-1.888-1.123-3.415-3.01-3.415-1.914 0-3.014 1.527-3.014 3.415 0 1.842.686 3.422 1.517 4.006.207.958-.177 1.268-.297 1.317-1.66.668-4.363 2.258-4.363 3.182v1.033c0 .2.172.38.362.38h7.872"/><path fill="#737780" d="M14.75 10c.345 0 .625.28.625.625v2.5h2.5a.625.625 0 1 1 0 1.25l-2.5-.001v2.501a.625.625 0 1 1-1.25 0v-2.501l-2.5.001a.625.625 0 1 1 0-1.25h2.5v-2.5c0-.345.28-.625.625-.625Z"/></g></svg>